<?xml version="1.0" standalone="no"?>
<!DOCTYPE svg PUBLIC "-//W3C//DTD SVG 20010904//EN"
 "http://www.w3.org/TR/2001/REC-SVG-20010904/DTD/svg10.dtd">
<svg version="1.0" xmlns="http://www.w3.org/2000/svg"
 width="300.000000pt" height="300.000000pt" viewBox="0 0 300.000000 300.000000"
 preserveAspectRatio="xMidYMid meet">
<metadata>
Created by potrace 1.14, written by Peter Selinger 2001-2017
</metadata>
<g transform="translate(0.000000,300.000000) scale(0.100000,-0.100000)"
fill="#000000" stroke="none">
<path d="M1694 2963 c-8 -18 -14 -37 -14 -43 0 -5 -6 -10 -12 -11 -14 -1 -31
-4 -75 -13 -26 -6 -35 -2 -62 29 l-32 37 -37 -15 c-35 -14 -37 -17 -37 -59 0
-45 -17 -78 -40 -78 -6 0 -20 -9 -30 -20 -22 -25 -31 -25 -79 -1 l-37 20 -32
-29 -32 -28 22 -45 22 -44 -35 -52 c-34 -51 -36 -51 -78 -48 -50 5 -57 2 -73
-35 -15 -34 -10 -49 27 -77 37 -27 38 -54 4 -69 -23 -11 -26 -10 -35 18 -10
28 -13 29 -62 26 -48 -3 -55 -1 -88 31 -35 33 -37 37 -32 88 l5 52 -39 16 -38
16 -38 -39 c-35 -38 -41 -40 -88 -36 -44 3 -54 8 -81 40 -32 39 -47 40 -94 11
-18 -12 -20 -19 -14 -59 6 -43 5 -47 -32 -83 -35 -34 -45 -38 -90 -38 -49 0
-50 -1 -65 -38 -15 -37 -15 -38 13 -60 15 -12 32 -25 37 -28 5 -4 11 -30 12
-58 2 -47 0 -54 -31 -81 -37 -32 -40 -45 -22 -85 10 -22 17 -25 63 -25 46 0
55 -4 89 -39 34 -35 37 -42 32 -77 -4 -21 -8 -38 -9 -39 -53 -25 -60 -25 -92
-6 l-33 19 -36 -30 c-52 -43 -60 -61 -40 -99 15 -29 15 -35 -1 -75 -14 -37
-22 -45 -56 -54 l-40 -11 3 -67 3 -66 36 -9 c32 -7 39 -15 54 -54 21 -55 8
-93 -30 -85 -18 3 -29 -4 -48 -33 l-25 -37 30 -43 31 -44 -22 -45 c-11 -25
-21 -50 -21 -56 0 -15 -36 -30 -74 -30 -39 0 -51 -14 -59 -67 -5 -30 -1 -34
40 -58 62 -37 56 -60 -15 -59 -28 1 -53 -1 -53 -5 -1 -3 -3 -93 -4 -199 l-1
-192 95 0 95 0 -27 -28 c-33 -34 -33 -44 -5 -85 13 -18 23 -33 23 -34 0 -1 21
3 47 9 l46 11 45 -48 44 -49 -14 -43 c-17 -49 -11 -63 39 -89 30 -16 36 -14
76 24 19 17 40 14 102 -16 54 -27 55 -28 60 -77 5 -46 7 -50 35 -56 56 -12 63
-9 92 34 l29 42 68 0 67 0 27 -43 c24 -39 30 -43 57 -37 17 4 37 8 45 9 10 2
18 21 23 54 6 35 13 52 23 52 8 0 34 9 59 21 l44 21 40 -32 40 -33 32 21 c30
18 33 19 60 3 17 -10 31 -28 35 -46 12 -56 55 -61 85 -11 25 43 69 54 113 28
30 -17 32 -17 53 1 18 16 20 23 11 49 -8 23 -7 36 8 64 23 42 40 44 49 4 6
-26 11 -30 39 -30 29 0 34 4 44 38 15 49 52 65 99 43 31 -14 34 -13 52 8 19
22 19 23 1 56 -11 20 -15 37 -10 40 6 4 10 15 10 26 0 14 12 26 40 37 22 9 39
22 39 27 -3 26 3 35 20 35 29 0 34 -15 17 -49 -14 -26 -14 -31 3 -50 14 -16
26 -20 45 -15 14 3 29 10 32 15 3 5 23 -3 45 -18 34 -22 40 -31 37 -57 -2 -24
2 -33 25 -46 27 -14 29 -14 50 12 19 23 27 25 62 19 34 -5 43 -12 58 -44 15
-32 22 -37 45 -34 21 3 30 12 38 38 18 53 86 60 117 12 10 -16 39 -17 55 -1 7
7 12 29 12 49 0 31 5 40 31 57 28 18 34 18 61 5 27 -14 31 -14 49 6 18 19 19
23 4 51 -9 17 -13 35 -10 40 3 6 42 10 86 10 l79 0 0 199 0 199 -44 -2 c-36
-1 -46 2 -50 16 -2 11 3 22 15 28 19 11 24 35 13 64 -4 10 -19 16 -43 16 -30
1 -40 7 -59 36 l-22 36 22 36 c12 21 25 39 28 42 4 3 12 14 18 25 8 16 5 26
-12 48 -22 27 -22 30 -8 73 11 35 22 48 48 59 36 15 43 37 33 99 -7 42 -21 55
-59 56 -20 0 -30 10 -47 47 -20 42 -21 48 -7 75 14 27 13 31 -8 57 -13 15 -36
35 -51 45 -27 15 -30 15 -57 -4 -26 -18 -34 -19 -74 -9 -37 9 -49 18 -63 48
-17 34 -21 36 -66 36 -47 0 -48 1 -67 44 -21 46 -25 65 -11 57 4 -3 15 12 23
33 15 36 14 40 -4 58 -19 19 -19 20 17 81 30 49 34 64 26 80 -8 15 -7 21 3 25
18 7 15 78 -4 88 -8 5 -27 13 -42 18 -22 8 -28 19 -38 67 l-12 57 36 34 36 34
-19 37 c-18 34 -21 36 -63 33 -43 -2 -45 -1 -80 51 l-35 53 23 40 22 40 -30
32 -31 32 -38 -20 c-40 -20 -69 -25 -69 -11 0 5 -18 18 -40 31 -42 23 -44 27
-41 78 1 26 -4 35 -28 48 -42 21 -53 19 -80 -15 -24 -31 -34 -33 -101 -15 -8
2 -20 4 -27 4 -7 1 -21 21 -31 45 -19 41 -22 44 -57 43 -33 -1 -40 -6 -51 -34z"/>
</g>
</svg>
